<svg version="1.1" xmlns="http://www.w3.org/2000/svg" viewBox="-7.468525340489274 -8.770092011039718 14.802432190752121 17.546046750272783" fill="none" stroke="black" stroke-width="0.6%" vector-effect="non-scaling-stroke">
    <path d="M -1.4712 -5.42688 A 5 2.44826 360 0 1 6.33391 -3.4002 A 5 2.44826 360 0 1 -3.66609 -3.4002 A 5 2.44826 360 0 1 -1.4712 -5.42688 Z" />
    <path d="M -3.66609 5.32769 A 5 2.44826 180 0 0 6.33391 5.32769" />
    <path d="M 2.59947 -5.76875 L 2.66781 -6.79169 L -2.85998 -7.77009 L -6.46852 -5.49821 L -3.66395 -3.47191" />
    <path d="M 2.66781 -5.75974 L 2.66781 -6.79169" />
    <path d="M -6.46852 3.22097 L -3.66609 5.24571" />
    <path d="M -6.46852 3.22097 L -6.46852 -5.49821" />
    <path d="M -3.66609 -3.4002 L -3.66609 5.32769" />
    <path d="M 6.33391 -3.4002 L 6.33391 5.32769" />
</svg>